<svg width="16" height="12" viewBox="0 0 16 12" fill="none" xmlns="http://www.w3.org/2000/svg">
<path d="M8.77734 11.9766C8.64453 11.9766 8.54297 11.9648 8.47266 11.9414C8.41016 11.918 8.37891 11.8789 8.37891 11.8242C8.37891 11.7695 8.44531 11.6758 8.57812 11.543L12.9961 7.20703H0.457031C0.152344 7.20703 0 7 0 6.58594V6.36328C0 6.16016 0.0390625 6.00781 0.117188 5.90625C0.203125 5.79688 0.316406 5.74219 0.457031 5.74219H12.9961L8.55469 1.39453C8.42188 1.24609 8.35547 1.14844 8.35547 1.10156C8.35547 1.00781 8.48828 0.960938 8.75391 0.960938H9.90234C10.0508 0.960938 10.1758 0.984375 10.2773 1.03125C10.3867 1.07031 10.4961 1.14062 10.6055 1.24219L15.4805 6.10547C15.5352 6.15234 15.5703 6.20312 15.5859 6.25781C15.6094 6.3125 15.6211 6.39844 15.6211 6.51562C15.6211 6.64062 15.5742 6.75 15.4805 6.84375L10.6172 11.6836C10.5156 11.7852 10.4102 11.8594 10.3008 11.9062C10.1992 11.9531 10.0703 11.9766 9.91406 11.9766H8.77734Z" fill="black"/>
</svg>
