<?xml version="1.0" standalone="no"?>
<!DOCTYPE svg PUBLIC "-//W3C//DTD SVG 20010904//EN"
 "http://www.w3.org/TR/2001/REC-SVG-20010904/DTD/svg10.dtd">
<svg version="1.0" xmlns="http://www.w3.org/2000/svg"
 width="260.000000pt" height="260.000000pt" viewBox="0 0 260.000000 260.000000"
 preserveAspectRatio="xMidYMid meet">
<metadata>
Created by potrace 1.11, written by Peter Selinger 2001-2013
</metadata>
<g transform="translate(0.000000,260.000000) scale(0.100000,-0.100000)"
fill="#000000" stroke="none">
<path d="M715 2370 c-49 -28 -89 -54 -88 -58 1 -5 117 -221 258 -480 140 -260
262 -487 271 -504 l15 -33 -241 -445 c-133 -245 -257 -473 -276 -507 l-34 -62
95 -51 c52 -28 98 -49 103 -46 4 2 114 201 242 440 129 239 237 435 240 435 3
0 108 -191 234 -425 127 -234 235 -432 241 -441 11 -15 23 -11 106 35 52 28
93 55 92 59 -1 5 -124 235 -273 511 l-272 502 80 147 c148 275 388 717 431
795 l42 76 -97 53 c-84 45 -99 50 -108 37 -6 -9 -114 -207 -241 -442 -126
-234 -232 -425 -235 -425 -3 0 -111 196 -240 436 -130 240 -240 438 -245 439
-6 2 -50 -19 -100 -46z"/>
</g>
</svg>
